<?xml version="1.0" encoding="utf-8"?>
<!-- Generator: Adobe Illustrator 27.9.0, SVG Export Plug-In . SVG Version: 6.00 Build 0)  -->
<svg version="1.1" id="Layer_1" xmlns="http://www.w3.org/2000/svg" xmlns:xlink="http://www.w3.org/1999/xlink" x="0px" y="0px"
	 width="996.8px" height="533.6px" viewBox="0 0 996.8 533.6" style="enable-background:new 0 0 996.8 533.6;" xml:space="preserve"
	>
<style type="text/css">
	.st0{fill:#1A1A1A;}
	.st1{fill:#B3B3B3;}
</style>
<path class="st0" d="M248.4,515.2c-66.3,0-128.7-25.8-175.6-72.7S0,333.2,0,266.8S25.8,138.1,72.7,91.2
	C119.7,44.3,182,18.4,248.4,18.4S377.1,44.3,424,91.2c46.9,46.9,72.7,109.3,72.7,175.6S470.9,395.5,424,442.4
	S314.7,515.2,248.4,515.2L248.4,515.2z M248.4,111.5c-85.6,0-155.3,69.7-155.3,155.3s69.7,155.3,155.3,155.3s155.3-69.7,155.3-155.3
	S334,111.5,248.4,111.5z"/>
<path class="st1" d="M990.5,421.5L851,282.1c-8.4-8.4-8.4-22.1,0-30.5l139.5-139.5c8.4-8.4,8.4-22.1,0-30.5l-47.9-47.9
	c-8.4-8.4-22.1-8.4-30.5,0L772.6,173.2c-8.4,8.4-22.1,8.4-30.5,0L602.6,33.7c-8.4-8.4-22.1-8.4-30.5,0l-47.9,47.9
	c-8.4,8.4-8.4,22.1,0,30.5l139.5,139.5c8.4,8.4,8.4,22.1,0,30.5L524.2,421.5c-8.4,8.4-8.4,22.1,0,30.5l47.9,47.9
	c8.4,8.4,22.1,8.4,30.5,0l139.5-139.5c8.4-8.4,22.1-8.4,30.5,0l139.5,139.5c8.4,8.4,22.1,8.4,30.5,0l47.9-47.9
	C998.9,443.6,998.9,430,990.5,421.5z"/>
</svg>
